<?xml version="1.0" standalone="no"?>
<!DOCTYPE svg PUBLIC "-//W3C//DTD SVG 1.1//EN" "http://www.w3.org/Graphics/SVG/1.1/DTD/svg11.dtd" >
<svg xmlns="http://www.w3.org/2000/svg" xmlns:xlink="http://www.w3.org/1999/xlink" version="1.1">
<metadata></metadata>
<defs>
<font id="sofia_problack_italic" horiz-adv-x="1245" >
<font-face units-per-em="2048" ascent="1536" descent="-512" />
<missing-glyph horiz-adv-x="487" />
<glyph unicode="&#xfb01;" horiz-adv-x="1490" d="M166 715l43 239h178l6 35q39 227 184 347t359 120h123l-55 -309h-123q-60 0 -104.5 -40t-57.5 -118l-6 -35h538h287l-168 -954h-326l125 715h-499l-125 -715h-326l125 715h-178zM1233 1272q12 76 81.5 130t149.5 54q82 0 127 -52.5t33 -131.5q-12 -77 -79.5 -132 t-147.5 -55q-81 0 -128.5 54.5t-35.5 132.5z" />
<glyph unicode="&#xfb02;" horiz-adv-x="1458" d="M166 715l43 239h178l6 35q39 227 184 347t359 120h657l-258 -1456h-325l202 1147h-331q-60 0 -104.5 -40t-57.5 -118l-6 -35h200l-43 -239h-200l-125 -715h-326l125 715h-178z" />
<glyph unicode="&#xfb03;" horiz-adv-x="2340" d="M166 715l43 239h178l6 35q39 227 184 347t359 120h123l-55 -309h-123q-60 0 -104.5 -40t-57.5 -118l-6 -35h524l6 35q39 227 184 347t359 120h123l-56 -309h-122q-60 0 -104.5 -40t-57.5 -118l-6 -35h825l-168 -954h-326l125 715h-499l-125 -715h-326l125 715h-524 l-125 -715h-326l125 715h-178zM2083 1272q12 76 81.5 130t149.5 54q82 0 127 -52.5t33 -131.5q-12 -77 -79.5 -132t-147.5 -55q-81 0 -128.5 54.5t-35.5 132.5z" />
<glyph unicode="&#xfb04;" horiz-adv-x="2308" d="M166 715l43 239h178l6 35q39 227 184 347t359 120h123l-55 -309h-123q-60 0 -104.5 -40t-57.5 -118l-6 -35h524l6 35q39 227 184 347t359 120h657l-258 -1456h-325l202 1147h-331q-60 0 -104.5 -40t-57.5 -118l-6 -35h200l-43 -239h-200l-125 -715h-326l125 715h-524 l-125 -715h-326l125 715h-178z" />
<glyph horiz-adv-x="0" />
<glyph horiz-adv-x="682" />
<glyph unicode=" "  horiz-adv-x="487" />
<glyph unicode="&#x09;" horiz-adv-x="487" />
<glyph unicode="&#xa0;" horiz-adv-x="487" />
<glyph unicode="!" horiz-adv-x="604" d="M133 172q12 78 79 132t146 54q81 0 129 -53t35 -133q-17 -82 -82 -136t-145 -54q-79 0 -129 55t-33 135zM248 473l129 938h342l-203 -938h-268z" />
<glyph unicode="&#x22;" horiz-adv-x="847" d="M293 795l67 616h265l-150 -616h-182zM651 795l68 616h264l-149 -616h-183z" />
<glyph unicode="#" horiz-adv-x="1538" d="M129 328l88 194h240l166 338h-238l94 195h240l170 356h248l-172 -356h202l174 356h244l-174 -356h244l-92 -195h-244l-168 -338h244l-92 -194h-242l-168 -328h-242l164 328h-205l-166 -328h-241l168 328h-242zM700 522h203l170 338h-205z" />
<glyph unicode="$" horiz-adv-x="1196" d="M150 420h346q-7 -62 28 -99.5t121 -37.5q74 0 130 32t67 95q4 14 1 28.5t-33 40t-89 47.5l-156 56q-73 21 -128 51.5t-87.5 66.5t-53 73t-27 78t-6 75.5t6.5 70.5q29 174 169 290.5t329 137.5l41 224h158l-41 -226q178 -25 266 -138t55 -296h-342q11 60 -18.5 95.5 t-104.5 35.5q-68 0 -113.5 -30.5t-56.5 -81.5q-12 -73 111 -115l154 -51q72 -24 128 -55.5t90 -62.5t56.5 -69t32.5 -68.5t12 -67t0 -58.5t-6 -49q-18 -99 -70 -178.5t-125 -129t-154 -78.5t-167 -38l-43 -246h-158l43 244q-203 20 -300.5 135t-65.5 299z" />
<glyph unicode="%" horiz-adv-x="1431" d="M264 1096q20 115 114 194.5t208 79.5q115 0 180 -79t45 -195q-22 -116 -115.5 -194.5t-208.5 -78.5q-116 0 -180.5 78t-42.5 195zM279 0l911 1343h194l-913 -1343h-192zM440 1096q-7 -41 16 -69t64 -28t74.5 28t40.5 69t-17 69.5t-65 28.5t-73 -28t-40 -70zM856 254 q20 116 112.5 195t209.5 79q115 0 180 -79t45 -195t-113 -194t-209 -78q-115 0 -181 78t-44 194zM1032 254q-7 -41 16 -68.5t64 -27.5t74.5 27.5t40.5 68.5q6 41 -17.5 69.5t-64.5 28.5t-74 -28.5t-39 -69.5z" />
<glyph unicode="&#x26;" horiz-adv-x="1452" d="M172 387q23 133 109 223.5t194 120.5q-84 18 -127.5 104t-23.5 207q30 155 167 264t328 121q136 10 237.5 -37t164.5 -137l-285 -196q-13 21 -37.5 38t-56.5 17q-69 0 -114.5 -39.5t-51.5 -79.5q-2 -11 -3 -23t3.5 -35t17 -39.5t43 -30t76.5 -13.5h184l27 145h301 l-29 -155h177l-43 -240h-177l-28 -170q-14 -70 -11.5 -117t22.5 -69t64 -16t113 42l-43 -241q-192 -68 -310 -34.5t-128 167.5q-63 -83 -177 -133.5t-214 -50.5q-203 0 -302.5 113t-66.5 294zM554 386q17 -66 98 -84q25 -5 53 -5q17 0 38.5 4.5t54.5 20.5t60.5 42t52 73.5 t33.5 109.5l6 35h-194q-109 0 -170 -74q-48 -59 -32 -122z" />
<glyph unicode="'" horiz-adv-x="489" d="M293 795l67 616h265l-150 -616h-182z" />
<glyph unicode="(" horiz-adv-x="815" d="M132 157.5q-7 142.5 20 305.5q48 266 178 487.5t309 349t367 127.5l-43 -237q-94 0 -211 -110t-210.5 -280.5t-123.5 -336.5q-26 -127 -9 -253t58.5 -226.5t106.5 -163t135 -62.5l-41 -235q-112 0 -208.5 46t-165 129t-112 200t-50.5 259.5z" />
<glyph unicode=")" horiz-adv-x="815" d="M-20 -477l36 235q69 0 156 63.5t165 162t140.5 227.5t83.5 252q25 127 7 257t-58.5 234t-105.5 170t-134 66l43 237q111 0 207.5 -48.5t164.5 -135t112 -207.5t50.5 -265t-20.5 -308q-36 -199 -121 -374.5t-198 -299t-250.5 -195t-277.5 -71.5z" />
<glyph unicode="*" horiz-adv-x="966" d="M279 1096l98 190l229 -98l33 268h205l-68 -266l271 96l24 -190l-266 -70l131 -213l-180 -113l-107 222l-194 -226l-136 119l207 207z" />
<glyph unicode="+" horiz-adv-x="1030" d="M158 371l39 221h309l55 309h221l-55 -309h311l-39 -221h-311l-53 -312h-221l53 312h-309z" />
<glyph unicode="," horiz-adv-x="563" d="M-35 -170q52 59 81.5 98t65 99t58.5 132.5t39 164.5h289q-67 -339 -383 -576z" />
<glyph unicode="-" horiz-adv-x="964" d="M180 358l49 277h727l-49 -277h-727z" />
<glyph unicode="." horiz-adv-x="589" d="M127 172q12 78 79 132t146 54q81 0 129 -53t35 -133q-17 -82 -82 -136t-145 -54q-79 0 -129 55t-33 135z" />
<glyph unicode="/" horiz-adv-x="1026" d="M59 0l918 1411h237l-917 -1411h-238z" />
<glyph unicode="0" horiz-adv-x="1236" d="M206 450q2 99 23 220t53.5 221.5t85.5 189.5t121.5 150.5t164 97t210.5 35.5t196 -35.5t126 -96t64 -151t15.5 -189.5t-24.5 -222q-21 -121 -52 -220t-82 -188t-117.5 -149.5t-160.5 -95.5t-208 -35q-116 0 -198.5 35t-129.5 95.5t-68 149.5t-19 188zM559 670 q-60 -373 115 -373q62 0 112 51.5t81 133t48 188.5q60 377 -106 377q-94 0 -159 -106t-91 -271z" />
<glyph unicode="1" horiz-adv-x="811" d="M215 807l49 280l621 287l-242 -1374h-334l160 913z" />
<glyph unicode="2" horiz-adv-x="1163" d="M98 0l33 184l666 643q78 78 84 123t-21 77t-102 32q-80 0 -126 -48.5t-75 -133.5l-287 45q68 206 217 324t351 118q119 0 210.5 -51.5t136 -147t23.5 -215.5q-32 -184 -198 -336l-355 -319h437l-50 -295h-944z" />
<glyph unicode="3" horiz-adv-x="1124" d="M111 231l239 185q7 -24 20 -47t35.5 -47t60 -39t83.5 -15q97 0 153.5 44t67.5 110q8 62 -33 104.5t-139 42.5h-137l45 252h137q39 0 69.5 13.5t47 31.5t28.5 42t15.5 37.5t5.5 25.5q3 12 -1.5 30.5t-16 39.5t-37.5 36t-62 15q-104 0 -198 -84l-164 157q79 98 203 152 t262 47q116 -5 202 -58.5t122.5 -138.5t17.5 -182q-16 -82 -77 -149t-147 -111q104 -41 151.5 -127.5t27.5 -196.5q-24 -131 -115.5 -227.5t-215.5 -143t-261 -46.5q-149 0 -253 65.5t-136 181.5z" />
<glyph unicode="4" horiz-adv-x="1290" d="M92 311l762 1032h414l-133 -763h159l-49 -269h-160l-53 -311h-332l54 311h-662zM563 580h240l78 448z" />
<glyph unicode="5" horiz-adv-x="1236" d="M121 236l287 184q85 -131 210 -131q105 0 188.5 63t96.5 137q17 89 -35 139t-153 50q-192 0 -359 -143l-127 79l238 729h815l-53 -284h-557l-60 -182q122 73 260 73q89 0 162.5 -32.5t122.5 -91.5t68.5 -146t1.5 -191q-37 -220 -221 -364.5t-443 -144.5 q-139 0 -258.5 70.5t-183.5 185.5z" />
<glyph unicode="6" horiz-adv-x="1224" d="M201 451q5 130 30.5 254.5t81 248t134.5 214.5t200.5 146t270.5 50q66 -2 119.5 -15t105 -41t90.5 -80t63 -126l-288 -127q-28 104 -152 104q-71 0 -129 -36t-95 -95t-59 -116.5t-34 -118.5q24 51 107 100t212 49q47 0 98 -13t103 -45t89.5 -78t54.5 -120.5t1 -165.5 q-38 -204 -194 -331t-400 -127q-196 0 -306.5 126.5t-102.5 342.5zM539 434q-11 -69 26 -115.5t113 -46.5q77 0 134 47.5t69 114.5q10 60 -30.5 108t-117.5 48q-71 0 -128.5 -48.5t-65.5 -107.5z" />
<glyph unicode="7" horiz-adv-x="1124" d="M193 0l604 1047h-531l53 296h1016l-774 -1343h-368z" />
<glyph unicode="8" horiz-adv-x="1251" d="M172 418q21 116 91.5 209.5t176.5 128.5q-49 34 -70 102t-10 139q29 158 178.5 262.5t331.5 104.5q117 0 207.5 -46.5t133.5 -131t24 -189.5q-13 -75 -57 -144t-105 -97q85 -29 131.5 -130t26.5 -208q-24 -128 -113.5 -228.5t-219 -154t-273.5 -53.5q-108 0 -199.5 31.5 t-154 87.5t-90 138.5t-9.5 178.5zM510 451q-14 -75 31.5 -126t134.5 -51q88 0 149.5 50.5t75.5 126.5q12 68 -31 120t-122 52h-17q-83 0 -145.5 -51.5t-75.5 -120.5zM666 985q-11 -55 20.5 -89t93.5 -34q61 0 103 34t53 89q8 45 -22 82t-83 37h-12q-58 0 -101.5 -35 t-51.5 -84z" />
<glyph unicode="9" horiz-adv-x="1224" d="M162 244l289 127q29 -105 151 -105q71 0 129 36t94.5 95.5t58.5 116.5t34 119q-24 -51 -106 -100.5t-212 -49.5q-39 0 -80 9t-86.5 29t-82 52.5t-65 79t-35.5 109t5 143.5q38 204 194 331.5t400 127.5q195 0 305 -127t102 -342q-4 -91 -17.5 -180.5t-41 -182.5 t-66.5 -174t-96.5 -152.5t-128 -121.5t-164 -77.5t-200.5 -24.5q-68 2 -121.5 14.5t-105.5 40.5t-91 80t-63 127zM580 911q-11 -60 27 -107.5t118 -47.5q73 0 127.5 47t67.5 108q12 68 -26 115t-114 47t-132 -47t-68 -115z" />
<glyph unicode=":" horiz-adv-x="632" d="M150 172q12 78 79 132t146 54q81 0 127 -52.5t33 -133.5q-17 -82 -80 -136t-144 -54q-79 0 -128.5 55t-32.5 135zM260 786q17 81 82 136t143 55q82 0 129.5 -54t30.5 -137q-12 -78 -79 -132t-148 -54q-79 0 -125 52.5t-33 133.5z" />
<glyph unicode=";" horiz-adv-x="614" d="M-8 -170q52 59 81.5 98t65 99t58.5 132.5t39 164.5h288q-67 -339 -383 -576zM262 786q17 81 82 136t143 55q80 0 128.5 -54t31.5 -137q-12 -78 -80.5 -132t-146.5 -54q-79 0 -125 52.5t-33 133.5z" />
<glyph unicode="&#x3c;" horiz-adv-x="1261" d="M178 516l45 250l1096 391l-43 -235l-774 -283l672 -279l-44 -237z" />
<glyph unicode="=" horiz-adv-x="1212" d="M195 338l34 209h942l-34 -209h-942zM266 756l39 209h942l-39 -209h-942z" />
<glyph unicode="&#x3e;" horiz-adv-x="1261" d="M168 123l43 237l774 279l-674 283l43 235l955 -391l-45 -250z" />
<glyph unicode="?" horiz-adv-x="1015" d="M250 991q39 214 175.5 327.5t334.5 113.5q194 0 294 -108.5t68 -291.5q-29 -147 -115 -245t-216 -142q-65 -22 -92.5 -59t-45.5 -113h-293l5 25q12 59 21.5 94.5t30 82.5t47.5 78.5t73 64.5t108 59l82 32q34 13 55 36t25.5 34.5t9.5 32.5q10 53 -22.5 81.5t-94.5 28.5 q-53 0 -99 -36.5t-56 -94.5h-295zM264 172q12 78 79 132t146 54q81 0 129 -53t35 -133q-17 -82 -82 -136t-145 -54q-79 0 -129 55t-33 135z" />
<glyph unicode="@" horiz-adv-x="1972" d="M175 314.5q-12 114.5 13 238.5q32 184 130.5 350.5t237 287.5t315.5 192t360 71q185 0 342 -66t262 -179.5t151.5 -275t14.5 -343.5q-14 -77 -40.5 -157t-71 -161.5t-100.5 -144.5t-133 -103t-163 -40q-63 0 -114 16.5t-91.5 55t-53 100t0.5 151.5l47 256 q17 98 -37.5 164t-148.5 66t-173 -66.5t-96 -163.5q-17 -90 39.5 -157.5t149.5 -67.5q87 0 147 33l-35 -201q-66 -27 -151 -27q-176 0 -277 122t-69 298q32 179 176.5 301.5t320.5 122.5q174 0 278 -118.5t79 -284.5l-53 -287q-11 -63 17 -94t75 -31q49 0 92 29.5t72.5 73.5 t54 102.5t38.5 110t23 102.5q24 141 -12 266t-118.5 212.5t-206 138t-269.5 50.5q-142 0 -280 -56t-246.5 -150.5t-185.5 -224.5t-101 -273t6.5 -271t105.5 -220.5t192.5 -146.5t260.5 -54h125l-39 -199h-125q-123 0 -233 31.5t-196 89t-153.5 138.5t-104.5 180t-49 213.5z " />
<glyph unicode="A" horiz-adv-x="1366" d="M-23 0l768 1411h373l271 -1411h-363l-63 324h-445l-174 -324h-367zM664 618h264l-56 465z" />
<glyph unicode="B" horiz-adv-x="1318" d="M158 0l248 1411h577q197 0 297 -104q77 -81 77 -201q0 -35 -7 -74q-7 -34 -23.5 -72t-44.5 -80t-75 -76.5t-105 -49.5q55 -8 97.5 -33t66.5 -59t39 -76t15 -84t-5 -84q-15 -81 -52.5 -152.5t-100 -132.5t-162.5 -97t-224 -36h-618zM553 299h219q75 0 124 43t60 102 q2 13 2 25q0 21 -6 41q-9 30 -42.5 53t-88.5 23h-217zM653 866h185q54 0 91 31.5t48 85.5q4 20 4 38q0 33 -14 56q-21 35 -80 35h-189z" />
<glyph unicode="C" horiz-adv-x="1447" d="M201 705q35 196 160.5 363t308 264.5t377.5 97.5q187 0 329 -86.5t215 -237.5q11 3 -43 -30l-104 -62l-170 -107q-36 81 -113.5 129.5t-175.5 48.5q-155 0 -282.5 -111t-155.5 -269q-7 -39 -6 -74q-1 -111 65 -195q88 -110 246 -110q100 0 191 47t159 129l246 -197 q-125 -151 -296.5 -237t-358.5 -86q-146 0 -269 57.5t-202.5 154.5t-113.5 231q-19 75 -18 155q0 61 11 125z" />
<glyph unicode="D" horiz-adv-x="1443" d="M158 0l248 1411h559q200 0 331 -94q130 -93 176 -253q25 -89 25 -192q0 -81 -16 -170q-27 -151 -93 -279t-162.5 -222.5t-227.5 -147.5t-281 -53h-559zM553 305h215q72 0 136 32.5t110 88.5t78 126.5t47 149.5q11 52 11 102q0 24 -2 48q-8 72 -34 129t-79 91t-124 34 h-215z" />
<glyph unicode="E" horiz-adv-x="1189" d="M158 0l248 1411h915l-51 -299h-574l-49 -270h504l-53 -293h-504l-43 -250h592l-51 -299h-934z" />
<glyph unicode="F" horiz-adv-x="1116" d="M158 0l248 1411h907l-51 -299h-562l-49 -270h445l-54 -295h-444l-94 -547h-346z" />
<glyph unicode="G" horiz-adv-x="1548" d="M201 705q27 147 107 281t193.5 231.5t258.5 155t295 57.5q171 0 303 -66.5t205 -183.5l-293 -215q-42 69 -112 108t-159 39q-159 0 -291 -119t-161 -288q-6 -39 -6 -76q0 -68 21 -128q32 -94 109.5 -151t182.5 -57q130 0 224.5 46.5t131.5 141.5h-395l49 275h768 q-27 -159 -83 -288t-132.5 -218.5t-174 -150.5t-207.5 -89t-234 -28q-199 0 -349.5 97.5t-217.5 263.5q-45 109 -45 232q0 63 12 130z" />
<glyph unicode="H" horiz-adv-x="1435" d="M158 0l248 1411h342l-99 -557h430l99 557h348l-248 -1411h-348l94 549h-430l-94 -549h-342z" />
<glyph unicode="I" horiz-adv-x="657" d="M158 0l248 1411h342l-248 -1411h-342z" />
<glyph unicode="J" horiz-adv-x="661" d="M-272 -432l86 307q58 -25 190 -25q64 0 102.5 45.5t51.5 118.5l248 1397h346l-246 -1397q-19 -102 -60 -187t-107 -153t-165.5 -106.5t-224.5 -38.5q-39 0 -104 10t-117 29z" />
<glyph unicode="K" horiz-adv-x="1296" d="M158 0l248 1411h342l-72 -403l352 403h428l-653 -696l534 -715h-469l-295 430l-73 -430h-342z" />
<glyph unicode="L" horiz-adv-x="1060" d="M158 0l248 1411h346l-197 -1112h508l-51 -299h-854z" />
<glyph unicode="M" horiz-adv-x="1869" d="M80 0l422 1411h284l246 -858l543 858h289l-76 -1411h-352l47 760l-389 -596h-258l-183 596l-221 -760h-352z" />
<glyph unicode="N" horiz-adv-x="1388" d="M158 0l248 1411h309l286 -760l136 760h342l-248 -1411h-299l-299 770l-133 -770h-342z" />
<glyph unicode="O" horiz-adv-x="1595" d="M201 705q35 196 160.5 363t308 264.5t377.5 97.5q148 0 271.5 -57.5t203 -155t112.5 -231.5q18 -74 19 -151q0 -64 -13 -130q-35 -196 -159 -362t-307 -263.5t-381 -97.5q-146 0 -269 57.5t-202.5 154.5t-113.5 231q-19 75 -18 155q0 61 11 125zM547 705q-7 -39 -6 -74 q-1 -111 65 -195q88 -110 246 -110q156 0 286 110.5t158 268.5q7 37 7 72q1 112 -69 197q-90 111 -249 111q-155 0 -282.5 -111t-155.5 -269z" />
<glyph unicode="P" horiz-adv-x="1265" d="M158 0l248 1411h583q81 0 147.5 -18.5t112 -51t79.5 -77.5t48.5 -97t19.5 -110l2 -34q0 -41 -9 -83q-17 -92 -61 -174t-113 -149t-171 -106.5t-223 -39.5h-241l-80 -471h-342zM633 766h225q79 0 124.5 50.5t59.5 123.5q5 23 5 45q0 42 -19 76q-28 51 -106 51h-226z" />
<glyph unicode="Q" horiz-adv-x="1609" d="M201 705q27 147 107 281t193.5 231.5t258.5 155t295 57.5q200 0 351.5 -97.5t218.5 -264.5q44 -109 44 -231q0 -64 -12 -132q-30 -174 -137 -326t-265 -258l91 -221l-261 -142l-104 244q-84 -20 -180 -20q-199 0 -349.5 97.5t-217.5 263.5q-45 109 -45 232q0 63 12 130z M547 705q-8 -42 -8 -80q0 -86 39 -155q55 -102 172 -144q44 -15 102 -21l-70 170l260 139l91 -204q144 116 178 295q7 41 7 78q0 118 -69 207q-91 118 -252 118q-158 0 -289.5 -118t-160.5 -285z" />
<glyph unicode="R" horiz-adv-x="1314" d="M158 0l248 1411h583q81 0 148 -18.5t113 -51t80 -77.5t48 -97q16 -52 20 -110q1 -15 1 -30q0 -43 -10 -87q-19 -103 -70 -193.5t-141.5 -162t-206.5 -97.5l260 -487h-397l-224 471h-30l-80 -471h-342zM633 766h225q79 0 124.5 50.5t59.5 123.5q5 23 5 45q0 42 -19 76 q-28 51 -106 51h-226z" />
<glyph unicode="S" horiz-adv-x="1200" d="M156 420h346q-1 -11 -1 -22q1 -48 29 -78q36 -38 121 -37q74 0 130 32t67 95q4 14 1 28.5t-33 40t-89 47.5l-154 56q-73 21 -128 51.5t-88 66.5t-54 73t-27 78q-6 38 -7 71q0 36 7 75q32 190 194 311.5t376 121.5q215 0 329 -118q87 -90 87 -230q0 -44 -9 -93h-342 q3 16 3 31q0 38 -22 64q-30 36 -104 36q-68 0 -113.5 -30.5t-56.5 -81.5q-2 -8 -2 -15q0 -62 113 -100l152 -51q72 -24 128 -55.5t90.5 -62.5t57 -68.5t32.5 -68t12.5 -67t0.5 -59t-6 -49.5q-16 -90 -60.5 -164t-105 -122.5t-135 -81.5t-149 -47.5t-148.5 -14.5 q-237 0 -358 119q-93 91 -93 230q0 42 9 89z" />
<glyph unicode="T" horiz-adv-x="1181" d="M252 1112l51 299h1071l-51 -299h-365l-196 -1112h-342l196 1112h-364z" />
<glyph unicode="U" horiz-adv-x="1396" d="M229 514l158 897h344l-158 -897q-4 -21 -4 -41q1 -63 43 -109q56 -60 138 -61q82 0 157 60.5t92 150.5l158 897h344l-158 -897q-29 -158 -128 -281t-235.5 -187t-285.5 -64q-109 0 -203.5 38t-160.5 105.5t-94 168.5q-16 58 -16 121q0 48 9 99z" />
<glyph unicode="V" horiz-adv-x="1212" d="M272 1411h357l73 -860l373 860h361l-680 -1411h-301z" />
<glyph unicode="W" horiz-adv-x="1808" d="M236 1411h370l103 -803l266 600h285l51 -600l387 803h373l-728 -1411h-264l-57 686l-293 -686h-266z" />
<glyph unicode="X" horiz-adv-x="1386" d="M4 0l617 750l-330 661h414l167 -391l310 391h409l-563 -661l356 -750h-403l-205 477l-370 -477h-402z" />
<glyph unicode="Y" horiz-adv-x="1357" d="M203 1411h407l224 -512l409 512h406l-688 -782l-111 -629h-344l110 635z" />
<glyph unicode="Z" horiz-adv-x="1232" d="M84 0l43 252l758 862h-578l51 297h1026l-43 -252l-766 -860h613l-51 -299h-1053z" />
<glyph unicode="[" horiz-adv-x="700" d="M55 -471l332 1882h498l-39 -221h-234l-254 -1434h234l-39 -227h-498z" />
<glyph unicode="\" horiz-adv-x="1026" d="M307 1411h238l422 -1411h-238z" />
<glyph unicode="]" horiz-adv-x="700" d="M-16 -471l34 227h234l254 1434h-234l39 221h498l-332 -1882h-493z" />
<glyph unicode="_" horiz-adv-x="1560" d="M63 -289l37 219h1327l-36 -219h-1328z" />
<glyph unicode="`" horiz-adv-x="1120" d="M524 1481h303l127 -357h-211z" />
<glyph unicode="a" d="M152 479q20 112 76.5 208t132.5 158.5t165.5 98t178.5 35.5q76 0 143 -33.5t98 -93.5l19 102h325l-168 -954h-325l20 109q-121 -127 -287 -127q-89 0 -166.5 34.5t-131.5 96.5q-56 61 -78 157q-12 51 -11 107q0 49 9 102zM483 477q-4 -21 -4 -40q0 -55 36 -99 q49 -58 130 -58.5t150 57.5t86 140q4 21 4 40q-1 56 -37 100q-50 59 -129 59q-81 0 -150 -58.5t-86 -140.5z" />
<glyph unicode="b" horiz-adv-x="1247" d="M123 0l258 1456h326l-107 -590q123 113 285 113q90 0 167 -35.5t130.5 -98.5t75.5 -159q12 -50 11 -104q0 -50 -9 -103q-26 -150 -114 -265.5t-202.5 -173.5t-234.5 -58q-40 0 -78.5 8.5t-75 25.5t-63.5 48.5t-39 72.5l-23 -137h-307zM530 477q-4 -21 -4 -40 q0 -55 36 -99q50 -58 132 -58.5t149.5 57t84.5 140.5q4 21 4 40q0 56 -36 100q-50 59 -130 59q-81 0 -150 -58.5t-86 -140.5z" />
<glyph unicode="c" horiz-adv-x="1077" d="M150 479q27 147 120 262.5t223.5 176.5t274.5 61q258 0 379 -236l-293 -159q-45 94 -152 94q-81 0 -149.5 -58.5t-85.5 -140.5q-4 -21 -4 -40q1 -55 37 -99q50 -58 131 -59q36 0 95 27q50 23 66 23q3 0 5 -1l260 -113q-205 -235 -463 -235q-106 0 -196 35.5t-152 99 t-88 157.5q-15 55 -16 115q0 44 8 90z" />
<glyph unicode="d" d="M152 479q20 112 76.5 208t132.5 158.5t165.5 98t178.5 35.5q162 0 243 -113l107 590h325l-258 -1456h-307l23 137q-53 -80 -136.5 -117.5t-171.5 -37.5q-89 0 -166.5 34.5t-131.5 96.5q-56 61 -78 157q-12 51 -11 107q0 49 9 102zM483 477q-4 -21 -4 -40q0 -55 36 -99 q49 -58 130 -58.5t150 57.5t86 140q4 21 4 40q-1 56 -37 100q-50 59 -129 59q-81 0 -150 -58.5t-86 -140.5z" />
<glyph unicode="e" horiz-adv-x="1126" d="M150 483q27 147 117 261.5t215 174.5t263 60q101 0 185.5 -34t141.5 -96q57 -63 80 -155q12 -49 12 -103q0 -47 -9 -99l-25 -105h-684v-8q0 -59 54 -97q58 -40 139 -40q112 0 199 80q18 -18 99 -84t95 -78q-89 -93 -211 -135.5t-250 -42.5q-102 0 -189 36.5t-145 100.5 q-59 64 -83 159q-13 52 -13 109q0 47 9 96zM481 569h381q-4 43 -23.5 73.5t-48 44t-52 19t-46.5 5.5q-22 0 -47.5 -5.5t-58 -19t-61 -44t-44.5 -73.5z" />
<glyph unicode="f" horiz-adv-x="782" d="M166 715l43 239h178l6 35q40 229 183.5 348t359.5 119h123l-55 -309h-123q-59 0 -102 -39.5t-60 -118.5l-6 -35h200l-43 -239h-200l-125 -715h-326l125 715h-178z" />
<glyph unicode="g" d="M55 -172l295 111q12 -56 63.5 -91.5t125.5 -35.5q123 0 201 77.5t104 229.5q-44 -62 -126.5 -99.5t-189.5 -37.5q-89 0 -166.5 34.5t-132 96.5t-77.5 157q-11 51 -11 107q0 49 9 102q40 222 204.5 361t350.5 139q76 0 143 -33.5t98 -93.5l19 102h323l-147 -833 q-54 -298 -222.5 -452t-433.5 -154q-167 0 -282 86.5t-148 226.5zM481 477q-4 -21 -4 -40q0 -56 37 -99q49 -59 131 -59t149.5 57.5t84.5 140.5q4 21 4 40q0 56 -37 100q-49 59 -129 59q-81 0 -150 -58.5t-86 -140.5z" />
<glyph unicode="h" horiz-adv-x="1208" d="M123 0l258 1456h326l-117 -651q26 56 83.5 98t114 59t101.5 17q189 -1 264 -123q48 -79 49 -199q0 -68 -16 -149l-88 -508h-326l86 498q4 20 4 37q0 52 -32 85q-42 44 -99 44q-66 0 -122 -39.5t-72 -122.5l-88 -502h-326z" />
<glyph unicode="i" horiz-adv-x="571" d="M123 0l168 954h325l-167 -954h-326zM311 1272q12 76 82 130t150 54q83 0 127 -52q35 -41 35 -100q0 -16 -3 -32q-12 -77 -79.5 -132t-147.5 -55q-81 1 -129 55q-38 44 -37 101q0 15 2 31z" />
<glyph unicode="j" horiz-adv-x="571" d="M-217 -485l53 309h123q58 0 101.5 40t56.5 118l6 34l168 938h325l-167 -938l-5 -34q-21 -153 -96.5 -259.5t-187.5 -157t-254 -50.5h-123zM313 1272q12 77 80.5 130.5t149.5 53.5t127 -53q37 -42 37 -100q0 -15 -2 -31q-12 -77 -80 -132t-148 -55q-81 0 -129 55 q-37 43 -37 101q0 15 2 31z" />
<glyph unicode="k" horiz-adv-x="1101" d="M123 0l258 1456h326l-132 -733l228 231h399l-428 -424l336 -530h-389l-213 344l-59 -344h-326z" />
<glyph unicode="l" horiz-adv-x="571" d="M123 0l258 1456h326l-258 -1456h-326z" />
<glyph unicode="m" horiz-adv-x="1810" d="M123 0l168 954h325l-26 -149q38 83 119.5 128.5t154.5 45.5q138 0 211 -51t94 -152q72 103 160.5 153t161.5 50q141 0 216.5 -56t89.5 -161q5 -40 5 -86q0 -76 -14 -168l-88 -508h-326l86 498q4 24 4 44q0 52 -29 82q-41 40 -102 40q-62 0 -108 -38t-62 -124l-88 -502 h-327l86 498q4 24 4 44q0 52 -29 82q-41 40 -102 40q-62 0 -108 -38t-62 -124l-88 -502h-326z" />
<glyph unicode="n" horiz-adv-x="1208" d="M123 0l168 954h325l-26 -149q26 56 83.5 98t114 59t101.5 17q189 0 263 -122q48 -80 47 -204q0 -66 -13 -145l-88 -508h-326l86 498q4 24 4 44q0 52 -29 82q-41 40 -102 40q-67 0 -122.5 -39t-71.5 -123l-88 -502h-326z" />
<glyph unicode="o" horiz-adv-x="1153" d="M150 479q27 147 117.5 262.5t215.5 176.5t260 61q102 0 188.5 -36t146.5 -100q59 -65 84 -159q14 -52 14 -110q0 -46 -9 -95q-27 -146 -118 -261t-217 -175.5t-263 -60.5q-100 0 -186 36t-145 100q-60 63 -84 157q-13 52 -13 108q0 47 9 96zM457 479q-4 -21 -4 -40 q1 -55 37 -99q50 -58 131.5 -58.5t148.5 57t84 140.5q4 21 4 40q0 56 -36 100q-50 59 -130 59q-81 0 -149.5 -58.5t-85.5 -140.5z" />
<glyph unicode="p" horiz-adv-x="1247" d="M39 -471l252 1425h307l-25 -137q54 80 140.5 121t171.5 41q90 0 167 -34.5t130.5 -97t75.5 -157.5q12 -51 12 -105q0 -50 -10 -104q-19 -112 -75.5 -207.5t-133 -158.5t-165.5 -98t-177 -35q-170 0 -246 106l-98 -559h-326zM530 477q-4 -20 -4 -39q0 -55 38 -97 q51 -56 132 -56q82 0 149.5 57.5t84.5 140.5q4 21 4 40q0 56 -36 100q-50 59 -132 59q-81 0 -149.5 -61t-86.5 -144z" />
<glyph unicode="q" d="M152 481q40 223 203 360.5t350 137.5q85 0 159 -41.5t97 -120.5l22 137h307l-252 -1425h-325l100 559q-118 -106 -283 -106q-89 0 -166.5 35t-132 98t-77.5 159q-11 50 -11 105q0 49 9 102zM483 483q-4 -21 -4 -40q0 -56 37 -99q49 -59 131 -59q83 0 150 55t84 137 q4 21 4 40q0 57 -37 103q-49 62 -129 62q-81 0 -150 -58.5t-86 -140.5z" />
<glyph unicode="r" horiz-adv-x="878" d="M123 0l168 954h309l-43 -235q58 129 153 194.5t195 65.5q84 0 135 -27l-133 -307q-63 25 -143 25q-49 0 -86.5 -16t-71.5 -54.5t-60 -110t-44 -176.5l-53 -313h-326z" />
<glyph unicode="s" horiz-adv-x="985" d="M125 319h305q-3 -10 -3 -20q0 -25 17 -47q23 -31 78 -31q42 0 73.5 17.5t37.5 46.5q4 22 -9.5 31.5t-66.5 23.5l-115 33q-96 28 -154 71t-71.5 85t-18.5 85q-2 13 -2 25q0 26 8 45q1 7 1 10q18 108 151 196.5t289 88.5q63 0 118.5 -10.5t108 -34t84.5 -62.5 q32 -38 48 -94q8 -27 8 -59q0 -33 -8 -70h-306q2 12 2 22q0 64 -82 64q-35 0 -60.5 -13t-29.5 -40q-1 -5 -1 -10q0 -34 61 -51l164 -48q55 -16 96.5 -39.5t64 -51.5t36.5 -54.5t17 -55.5t2.5 -48.5t-3.5 -38.5q-14 -77 -62.5 -137t-117.5 -95t-146.5 -53t-157.5 -18 q-78 0 -147 22t-121.5 63t-76.5 107q-16 42 -16 89q0 27 5 56z" />
<glyph unicode="t" horiz-adv-x="774" d="M166 715l43 239h174l59 342h322l-59 -342h200l-43 -239h-200l-125 -715h-322l125 715h-174z" />
<glyph unicode="u" horiz-adv-x="1208" d="M190 453l89 501h327l-88 -491q-5 -24 -4 -45q0 -52 28 -80q40 -40 101 -41q30 0 59 7.5t59 24t50.5 48.5t26.5 76l90 501h325l-168 -954h-325l24 150q-26 -56 -83 -96.5t-112 -56t-102 -15.5q-189 0 -264 122q-48 79 -48 200q0 68 15 149z" />
<glyph unicode="v" horiz-adv-x="1083" d="M164 954h350l100 -542l289 542h352l-575 -954h-279z" />
<glyph unicode="w" horiz-adv-x="1554" d="M178 954h348l49 -526l240 526h256l51 -526l238 526h348l-496 -954h-276l-59 571l-252 -571h-277z" />
<glyph unicode="x" horiz-adv-x="1114" d="M4 0l467 516l-240 438h375l90 -180l150 180h373l-394 -438l283 -516h-373l-133 262l-223 -262h-375z" />
<glyph unicode="y" horiz-adv-x="1060" d="M43 -471l344 598l-227 827h356l105 -462l260 462h346l-842 -1425h-342z" />
<glyph unicode="z" horiz-adv-x="1048" d="M82 0l41 233l477 426h-377l53 295h844l-43 -237l-485 -422h409l-49 -295h-870z" />
<glyph unicode="{" horiz-adv-x="847" d="M121 383l33 174q47 0 91 32t56 93l55 315q21 123 94.5 218.5t177 145.5t218.5 50h190l-39 -221h-163q-92 0 -147.5 -60t-68.5 -147l-51 -278q-13 -68 -55 -123t-87 -81t-85 -32q62 -9 111.5 -70.5t31.5 -162.5l-47 -279q-8 -40 -3.5 -77t18.5 -66t47 -46.5t82 -17.5h163 l-38 -221h-191q-86 0 -157.5 29.5t-119 82.5t-66.5 131.5t-1 170.5l53 315q11 61 -21 93t-81 32z" />
<glyph unicode="|" horiz-adv-x="436" d="M92 -258l338 1907h158l-338 -1907h-158z" />
<glyph unicode="}" horiz-adv-x="847" d="M-20 -471l34 221h164q92 0 147 59.5t68 147.5l49 279q13 70 55.5 124t88 78.5t86.5 30.5q-64 9 -114 72.5t-32 163.5l49 278q6 55 0 101t-42.5 76t-100.5 30h-164l39 221h191q86 0 157 -29.5t118.5 -82.5t67 -131.5t3.5 -170.5l-58 -315q-11 -61 21.5 -93t81.5 -32 l-31 -174q-49 0 -92.5 -32t-54.5 -93l-56 -315q-32 -185 -172.5 -299.5t-316.5 -114.5h-186z" />
<glyph unicode="&#xa1;" horiz-adv-x="571" d="M29 -469l204 938h269l-131 -938h-342zM227 788q17 82 82.5 136.5t145.5 54.5t127 -55t34 -136q-12 -78 -80.5 -132t-148.5 -54q-79 0 -126 53t-34 133z" />
<glyph unicode="&#xa2;" horiz-adv-x="1105" d="M158 479q36 194 179.5 325.5t334.5 164.5l45 256h157l-43 -250q222 -23 324 -232l-293 -159q-45 94 -151 94q-81 0 -150 -58.5t-86 -140.5q-17 -81 32.5 -139.5t131.5 -58.5q105 0 180 88l246 -152q-178 -211 -410 -231l-43 -244h-157l45 250q-116 20 -201 83.5t-125 169 t-16 234.5z" />
<glyph unicode="&#xa3;" horiz-adv-x="1437" d="M78 0l47 272h229l58 334h-160l24 131h160l43 242q36 205 180 328t342 123q489 0 404 -494h-324q16 88 -17 127t-99 39q-64 0 -108.5 -45t-55.5 -111l-37 -209h205l-25 -131h-205l-57 -334h342q35 0 50 21.5t22 62.5l18 103h322l-33 -176q-24 -120 -122 -201.5t-210 -81.5 h-993z" />
<glyph unicode="&#xa4;" horiz-adv-x="1261" d="M182 330l170 147q-40 86 -18 217q21 123 98 219l-121 148l166 141l123 -147q106 61 225 61q120 0 211 -61l170 147l117 -141l-174 -150q45 -110 27 -217q-22 -124 -103 -217l121 -147l-168 -142l-119 148q-112 -62 -231 -62q-121 0 -207 62l-172 -148zM594 694 q-12 -66 25.5 -111.5t103.5 -45.5q67 0 121.5 45.5t66.5 111.5q12 68 -26 114t-105 46q-66 0 -120 -46.5t-66 -113.5z" />
<glyph unicode="&#xa5;" horiz-adv-x="1568" d="M309 1411h408l223 -512l410 512h405l-651 -741h268l-24 -144h-297l-37 -202h297l-27 -142h-297l-29 -182h-348l29 182h-297l27 142h297l36 202h-296l24 144h270z" />
<glyph unicode="&#xa6;" horiz-adv-x="444" d="M96 -258l137 782h158l-137 -782h-158zM295 872l139 777h158l-139 -777h-158z" />
<glyph unicode="&#xa7;" horiz-adv-x="1138" d="M121 -63l280 79q2 -45 17.5 -77.5t38.5 -49.5t47.5 -24.5t50.5 -7.5q68 0 123 44.5t67 114.5l78 418q14 80 -32 120t-125 40q-49 0 -80 -4l51 278q52 11 100 11q91 0 167.5 -32t127 -89t71.5 -141t3 -183l-76 -418q-24 -131 -103 -233t-190 -155.5t-233 -53.5 q-73 0 -141 21.5t-124.5 63.5t-89 114t-28.5 164zM209 569l74 418q36 198 186.5 320.5t339.5 122.5q75 0 142.5 -21.5t123 -63.5t87.5 -114t30 -164l-281 -80q-7 86 -48.5 123t-100.5 37q-68 0 -125.5 -45t-69.5 -115l-71 -418q-14 -80 29.5 -119.5t121.5 -39.5q49 0 80 4 l-49 -279q-49 -10 -103 -10q-121 0 -212.5 54t-134.5 156.5t-19 233.5z" />
<glyph unicode="&#xa8;" horiz-adv-x="1187" d="M477 1313q12 62 65.5 104.5t119.5 42.5q65 0 101 -42.5t25 -104.5q-11 -63 -61.5 -106.5t-116.5 -43.5t-104.5 43.5t-28.5 106.5zM862 1313q10 61 65.5 104t121.5 43q63 0 99.5 -42.5t25.5 -104.5q-10 -63 -62 -106.5t-115 -43.5q-66 0 -105.5 43.5t-29.5 106.5z" />
<glyph unicode="&#xa9;" horiz-adv-x="1622" d="M219 702q36 197 159.5 363.5t305 264t377.5 97.5t344.5 -97.5t214.5 -264.5t31 -363q-27 -148 -107 -281.5t-193 -230t-256 -153.5t-290 -57q-148 0 -270.5 57t-200.5 153.5t-110 230t-5 281.5zM379 702q-26 -153 24 -281.5t163 -204t265 -75.5q113 0 224.5 44.5 t200 119.5t151 179t82.5 218q20 115 -4.5 219t-85 180t-156 120.5t-209.5 44.5q-152 0 -293 -75.5t-238 -205.5t-124 -283zM575 696q28 152 147.5 257.5t270.5 105.5q91 0 163.5 -43.5t109.5 -118.5l-152 -94q-60 94 -147 94q-79 0 -139.5 -57t-77.5 -144q-17 -82 23.5 -139 t119.5 -57q97 0 184 94l121 -92q-64 -77 -152.5 -122.5t-179.5 -45.5q-150 0 -235 107t-56 255z" />
<glyph unicode="&#xaa;" horiz-adv-x="968" d="M207 406l24 139h687l-25 -139h-686zM279 991q19 107 81.5 189.5t148 125t179.5 42.5q110 0 182 -78l11 63h176l-121 -686h-176l10 68q-95 -82 -209 -82q-144 0 -227 99t-55 259zM459 993q-17 -80 25.5 -132t119.5 -52t138.5 49.5t78.5 134.5q16 82 -33 130t-120 48 q-76 0 -136 -50t-73 -128z" />
<glyph unicode="&#xab;" horiz-adv-x="1081" d="M156 477l358 424h244l-359 -424l209 -424h-243zM555 477l358 424h244l-358 -424l209 -424h-244z" />
<glyph unicode="&#xac;" horiz-adv-x="1269" d="M219 502l49 274h994l-103 -575h-276l53 301h-717z" />
<glyph unicode="&#xad;" horiz-adv-x="964" d="M180 358l49 277h727l-49 -277h-727z" />
<glyph unicode="&#xae;" horiz-adv-x="1622" d="M219 702q36 197 159.5 363.5t305 264t377.5 97.5t344.5 -97.5t214.5 -264.5t31 -363q-27 -148 -107 -281.5t-193 -230t-256 -153.5t-290 -57q-148 0 -270.5 57t-200.5 153.5t-110 230t-5 281.5zM379 702q-26 -153 24 -281.5t163 -204t265 -75.5q113 0 224.5 44.5 t200 119.5t151 179t82.5 218q20 115 -4.5 219t-85 180t-156 120.5t-209.5 44.5q-152 0 -293 -75.5t-238 -205.5t-124 -283zM621 356l127 695h290q77 0 127 -35t66 -87t4 -112q-14 -79 -67 -141t-134 -88l129 -232h-207l-106 224h-14l-43 -224h-172zM858 731h109 q33 0 59.5 26.5t32.5 59.5q5 28 -9.5 54t-43.5 26h-115z" />
<glyph unicode="&#xaf;" horiz-adv-x="1081" d="M455 1186l30 178h590l-31 -178h-589z" />
<glyph unicode="&#xb0;" horiz-adv-x="753" d="M272 1083q20 121 123.5 208t222.5 87q124 0 194 -86.5t50 -208.5t-124 -209.5t-226 -87.5q-120 0 -190 87t-50 210zM440 1083q-10 -55 19.5 -92t83.5 -37q55 0 97.5 36.5t53.5 92.5q10 54 -20 90.5t-86 36.5q-54 0 -95.5 -36.5t-52.5 -90.5z" />
<glyph unicode="&#xb1;" horiz-adv-x="1114" d="M131 -2l41 225h848l-41 -225h-848zM240 610l39 221h313l51 287h221l-51 -287h313l-39 -221h-313l-51 -291h-221l51 291h-313z" />
<glyph unicode="&#xb2;" horiz-adv-x="702" d="M236 993l22 125l408 383q34 41 21 73t-58 32q-69 0 -99 -82l-196 28q87 258 346 258q110 0 177.5 -70.5t47.5 -178.5q-20 -115 -117 -201l-206 -180h260l-31 -187h-575z" />
<glyph unicode="&#xb3;" horiz-adv-x="690" d="M229 1122l129 111q37 -76 152 -76q62 0 96 27.5t41 68.5q7 39 -28 60.5t-89 21.5h-86l29 152h86q88 0 105 76q5 24 -14 43.5t-64 19.5q-76 0 -133 -51l-93 117q51 57 128 87.5t165 30.5q113 0 177.5 -69t46.5 -158q-10 -51 -49.5 -91t-94.5 -65q137 -52 119 -180 q-13 -85 -69.5 -146.5t-133 -89.5t-164.5 -28q-97 0 -165.5 35t-90.5 104z" />
<glyph unicode="&#xb4;" horiz-adv-x="1120" d="M461 1124l254 357h303l-346 -357h-211z" />
<glyph unicode="&#xb5;" horiz-adv-x="1224" d="M68 -389l239 1343h326l-88 -497q-16 -85 24 -125.5t101 -40.5q66 0 123 39t73 123l88 501h328l-168 -954h-326l23 150q-37 -82 -129 -128.5t-168 -46.5q-41 0 -98 11l-68 -375h-280z" />
<glyph unicode="&#xb6;" horiz-adv-x="1529" d="M238 967q32 185 183.5 314.5t338.5 129.5h207l-267 -1505h-227l111 616q-175 12 -276.5 139.5t-69.5 305.5zM408 -438l36 198h291q40 0 67.5 27.5t33.5 67.5l276 1556h313q119 0 187 -85t47 -196l-31 -176h-203l27 150q7 39 -17 62.5t-63 23.5h-82l-239 -1348 q-21 -111 -114.5 -195.5t-215.5 -84.5h-313z" />
<glyph unicode="&#xb7;" horiz-adv-x="587" d="M240 793q13 81 77.5 133.5t145.5 52.5q80 0 128 -53.5t36 -132.5q-17 -81 -83.5 -135t-146.5 -54q-81 0 -127.5 53t-29.5 136z" />
<glyph unicode="&#xb8;" horiz-adv-x="1093" d="M295 -178l141 -8q-20 -75 23 -102q34 -21 72 3q48 29 42 96q-1 6 -2 13l-69 223h137l80 -170q18 -43 4 -104q-17 -91 -90.5 -153t-159.5 -62q-95 0 -150 67t-28 197z" />
<glyph unicode="&#xb9;" horiz-adv-x="497" d="M299 1458l31 178l395 187l-147 -830h-218l95 531z" />
<glyph unicode="&#xba;" horiz-adv-x="942" d="M199 406l24 139h686l-24 -139h-686zM289 993q28 159 149 257t269 98q151 0 239 -98t60 -257q-19 -106 -83.5 -189.5t-154.5 -127t-188 -43.5q-149 0 -234.5 100t-56.5 260zM463 993q-17 -82 27 -133t122 -51q77 0 137.5 50.5t77.5 133.5q13 80 -30.5 129t-120.5 49 t-138.5 -49t-74.5 -129z" />
<glyph unicode="&#xbb;" horiz-adv-x="1081" d="M90 53l356 424l-204 424h243l205 -424l-356 -424h-244zM489 53l357 424l-205 424h244l205 -424l-357 -424h-244z" />
<glyph unicode="&#xbc;" horiz-adv-x="1699" d="M221 -18l1170 1384h190l-1167 -1384h-193zM252 1001l33 179l393 186l-148 -829h-217l95 530zM944 190l440 617h289l-78 -438h93l-33 -179h-92l-31 -190h-215l31 190h-404zM1253 369h127l45 249z" />
<glyph unicode="&#xbd;" horiz-adv-x="1710" d="M219 -18l1170 1384h190l-1167 -1384h-193zM250 1001l33 179l393 186l-148 -829h-217l95 530zM1047 0l18 125l410 383q34 41 21.5 72.5t-58.5 31.5q-69 0 -99 -82l-194 29q41 127 129 192.5t217 65.5q109 0 177 -71.5t48 -178.5q-23 -114 -119 -200l-206 -181h262 l-31 -186h-575z" />
<glyph unicode="&#xbe;" horiz-adv-x="1888" d="M190 666l129 110q37 -76 150 -76q62 0 97 28t42 69q7 39 -27.5 60.5t-88.5 21.5h-86l26 151h86q88 0 105 76q5 24 -13 43.5t-63 19.5q-82 0 -133 -51l-92 117q51 57 127.5 88t164.5 31q112 0 177 -69.5t47 -158.5q-19 -97 -146 -155q139 -53 121 -180 q-13 -85 -69.5 -146.5t-133.5 -90t-166 -28.5q-96 0 -164 35t-90 105zM410 -18l1169 1384h190l-1167 -1384h-192zM1133 190l440 617h289l-78 -438h92l-33 -179h-92l-31 -190h-215l31 190h-403zM1442 369h127l43 249z" />
<glyph unicode="&#xbf;" horiz-adv-x="997" d="M49 -82q29 146 115.5 244.5t216.5 142.5q66 23 94.5 60.5t40.5 111.5h293l-4 -24q-9 -55 -19 -92.5t-30 -83t-48 -78.5t-74.5 -66t-109.5 -59l-80 -33q-82 -35 -88 -102q-7 -53 24.5 -82t92.5 -29q53 0 98.5 36.5t55.5 94.5h295q-40 -216 -176 -328t-334 -112 q-194 0 -294.5 108t-68.5 291zM520 788q17 82 82.5 136.5t147.5 54.5q80 0 128 -54t31 -137q-12 -78 -80.5 -132t-146.5 -54q-81 0 -128 52.5t-34 133.5z" />
<glyph unicode="&#xc0;" horiz-adv-x="1366" d="M-23 0l768 1411h373l271 -1411h-363l-63 324h-445l-174 -324h-367zM664 618h264l-56 465zM676 1890h303l127 -356h-211z" />
<glyph unicode="&#xc1;" horiz-adv-x="1366" d="M-23 0l768 1411h373l271 -1411h-363l-63 324h-445l-174 -324h-367zM664 618h264l-56 465zM768 1534l254 356h303l-346 -356h-211z" />
<glyph unicode="&#xc2;" horiz-adv-x="1366" d="M-23 0l768 1411h373l271 -1411h-363l-63 324h-445l-174 -324h-367zM571 1550l287 355h320l161 -355h-221l-131 183l-196 -183h-220zM664 618h264l-56 465z" />
<glyph unicode="&#xc3;" horiz-adv-x="1366" d="M-23 0l768 1411h373l271 -1411h-363l-63 324h-445l-174 -324h-367zM659 1544q34 139 105.5 202.5t148.5 63.5q29 0 55 -13t41 -29t33.5 -29t34.5 -13t37.5 20.5t30.5 63.5h153q-15 -72 -45.5 -126t-67 -82t-72 -41t-69.5 -13q-28 0 -53 13t-40.5 29t-34 29t-33.5 13 t-38 -22.5t-32 -65.5h-154zM664 618h264l-56 465z" />
<glyph unicode="&#xc4;" horiz-adv-x="1366" d="M-23 0l768 1411h373l271 -1411h-363l-63 324h-445l-174 -324h-367zM639 1722q12 62 65 105t119 43q65 0 101.5 -43t25.5 -105q-11 -63 -62.5 -106t-117.5 -43t-104 43t-27 106zM664 618h264l-56 465zM1024 1722q10 61 65 104.5t121 43.5q63 0 99.5 -43t25.5 -105 q-10 -63 -62.5 -106t-115.5 -43q-66 0 -104.5 43t-28.5 106z" />
<glyph unicode="&#xc5;" horiz-adv-x="1366" d="M-23 0l768 1411h373l271 -1411h-363l-63 324h-445l-174 -324h-367zM664 618h264l-56 465zM737 1788q17 109 107.5 186.5t197.5 77.5q111 0 171.5 -76t43.5 -188q-20 -110 -108.5 -185t-200.5 -75q-106 0 -168.5 76t-42.5 184zM864 1788q-10 -59 20.5 -96t86.5 -37 q58 0 105 37t57 96q10 60 -22 99.5t-89 39.5q-56 0 -102 -40t-56 -99z" />
<glyph unicode="&#xc6;" horiz-adv-x="1916" d="M-57 0l1138 1411h967l-51 -299h-576l-49 -270h504l-51 -289h-504l-45 -254h592l-51 -299h-936l-2 2v-2l53 311h-328l-248 -311h-413zM786 606h197l70 385z" />
<glyph unicode="&#xc7;" horiz-adv-x="1449" d="M201 705q27 147 107.5 281t193.5 231.5t256.5 155t290.5 57.5q187 0 329 -86.5t215 -237.5q-1 0 -23 -14.5t-62 -39.5t-76 -46l-158 -99q-36 81 -112.5 129.5t-174.5 48.5q-156 0 -284 -110.5t-156 -269.5t59.5 -269t245.5 -110q100 0 192 47t160 129l244 -197 q-120 -143 -288.5 -231t-344.5 -92l51 -105q15 -45 2 -104q-17 -91 -90.5 -153t-159.5 -62q-96 0 -149.5 67t-26.5 197l142 -8q-20 -74 22 -101q34 -21 72 3q48 30 41 96l-2 12l-51 170q-162 29 -278.5 130.5t-166 253.5t-20.5 327z" />
<glyph unicode="&#xc8;" horiz-adv-x="1189" d="M158 0l248 1411h915l-51 -299h-574l-49 -270h504l-53 -293h-504l-43 -250h592l-51 -299h-934zM602 1890h303l127 -356h-211z" />
<glyph unicode="&#xc9;" horiz-adv-x="1189" d="M158 0l248 1411h915l-51 -299h-574l-49 -270h504l-53 -293h-504l-43 -250h592l-51 -299h-934zM698 1534l254 356h303l-346 -356h-211z" />
<glyph unicode="&#xca;" horiz-adv-x="1189" d="M158 0l248 1411h915l-51 -299h-574l-49 -270h504l-53 -293h-504l-43 -250h592l-51 -299h-934zM473 1550l287 355h319l162 -355h-221l-131 183l-197 -183h-219z" />
<glyph unicode="&#xcb;" horiz-adv-x="1189" d="M158 0l248 1411h915l-51 -299h-574l-49 -270h504l-53 -293h-504l-43 -250h592l-51 -299h-934zM541 1722q12 62 65 105t119 43q65 0 101.5 -43t25.5 -105q-11 -63 -62.5 -106t-117.5 -43t-104 43t-27 106zM926 1722q10 61 65 104.5t121 43.5q63 0 99.5 -43t25.5 -105 q-10 -63 -62.5 -106t-115.5 -43q-66 0 -104.5 43t-28.5 106z" />
<glyph unicode="&#xcc;" horiz-adv-x="657" d="M158 0l248 1411h342l-248 -1411h-342zM342 1890h303l127 -356h-211z" />
<glyph unicode="&#xcd;" horiz-adv-x="657" d="M158 0l248 1411h342l-248 -1411h-342zM426 1534l254 356h303l-346 -356h-211z" />
<glyph unicode="&#xce;" horiz-adv-x="657" d="M158 0l248 1411h342l-248 -1411h-342zM217 1550l287 355h319l162 -355h-221l-131 183l-197 -183h-219z" />
<glyph unicode="&#xcf;" horiz-adv-x="657" d="M158 0l248 1411h342l-248 -1411h-342zM287 1722q12 62 65 105t119 43q65 0 101.5 -43t25.5 -105q-11 -63 -62.5 -106t-117.5 -43t-104 43t-27 106zM672 1722q10 61 65 104.5t121 43.5q63 0 99.5 -43t25.5 -105q-10 -63 -62.5 -106t-115.5 -43q-66 0 -104.5 43t-28.5 106z " />
<glyph unicode="&#xd0;" horiz-adv-x="1478" d="M100 578l37 206h193l110 627h559q121 0 218.5 -35t161.5 -99t104 -152.5t46 -195t-13 -227.5q-27 -151 -93 -279t-162.5 -222.5t-227.5 -147.5t-281 -53h-559l100 578h-193zM588 305h215q72 0 136 32.5t110 88.5t78 126.5t47 149.5q17 78 8.5 150.5t-34 129t-79 90.5 t-125.5 34h-215l-55 -322h217l-37 -206h-217z" />
<glyph unicode="&#xd1;" horiz-adv-x="1388" d="M158 0l248 1411h309l286 -760l136 760h342l-248 -1411h-299l-299 770l-133 -770h-342zM670 1544q34 139 105.5 202.5t148.5 63.5q37 0 67 -21t53.5 -42t42.5 -21q16 0 37.5 20.5t30.5 63.5h154q-15 -72 -45.5 -126t-67 -82t-72 -41t-69.5 -13q-35 0 -65.5 21t-54 42 t-42.5 21q-15 0 -38 -22.5t-32 -65.5h-153z" />
<glyph unicode="&#xd2;" horiz-adv-x="1595" d="M201 705q35 196 160.5 363t308 264.5t377.5 97.5q148 0 271.5 -57.5t203 -155t112.5 -231.5t6 -281q-35 -196 -159 -362t-307 -263.5t-381 -97.5q-146 0 -269 57.5t-202.5 154.5t-113 231t-7.5 280zM547 705q-28 -159 59.5 -269t245.5 -110q156 0 286 110.5t158 268.5 t-62.5 269t-248.5 111q-155 0 -282.5 -111t-155.5 -269zM709 1890h303l127 -356h-211z" />
<glyph unicode="&#xd3;" horiz-adv-x="1595" d="M201 705q35 196 160.5 363t308 264.5t377.5 97.5q148 0 271.5 -57.5t203 -155t112.5 -231.5t6 -281q-35 -196 -159 -362t-307 -263.5t-381 -97.5q-146 0 -269 57.5t-202.5 154.5t-113 231t-7.5 280zM547 705q-28 -159 59.5 -269t245.5 -110q156 0 286 110.5t158 268.5 t-62.5 269t-248.5 111q-155 0 -282.5 -111t-155.5 -269zM973 1534l254 356h303l-346 -356h-211z" />
<glyph unicode="&#xd4;" horiz-adv-x="1595" d="M201 705q35 196 160.5 363t308 264.5t377.5 97.5q148 0 271.5 -57.5t203 -155t112.5 -231.5t6 -281q-35 -196 -159 -362t-307 -263.5t-381 -97.5q-146 0 -269 57.5t-202.5 154.5t-113 231t-7.5 280zM547 705q-28 -159 59.5 -269t245.5 -110q156 0 286 110.5t158 268.5 t-62.5 269t-248.5 111q-155 0 -282.5 -111t-155.5 -269zM684 1550l287 355h319l162 -355h-221l-129 183l-199 -183h-219z" />
<glyph unicode="&#xd5;" horiz-adv-x="1595" d="M201 705q35 196 160.5 363t308 264.5t377.5 97.5q148 0 271.5 -57.5t203 -155t112.5 -231.5t6 -281q-35 -196 -159 -362t-307 -263.5t-381 -97.5q-146 0 -269 57.5t-202.5 154.5t-113 231t-7.5 280zM547 705q-28 -159 59.5 -269t245.5 -110q156 0 286 110.5t158 268.5 t-62.5 269t-248.5 111q-155 0 -282.5 -111t-155.5 -269zM772 1544q34 139 105.5 202.5t148.5 63.5q29 0 55 -13t42 -29t34.5 -29t34.5 -13t37 20.5t28 63.5h154q-15 -72 -45.5 -126t-67 -82t-72 -41t-69.5 -13t-64 21t-53.5 42t-42.5 21q-15 0 -37.5 -22t-33.5 -66h-154z " />
<glyph unicode="&#xd6;" horiz-adv-x="1595" d="M201 705q35 196 160.5 363t308 264.5t377.5 97.5q148 0 271.5 -57.5t203 -155t112.5 -231.5t6 -281q-35 -196 -159 -362t-307 -263.5t-381 -97.5q-146 0 -269 57.5t-202.5 154.5t-113 231t-7.5 280zM547 705q-28 -159 59.5 -269t245.5 -110q156 0 286 110.5t158 268.5 t-62.5 269t-248.5 111q-155 0 -282.5 -111t-155.5 -269zM752 1722q12 62 66 105t120 43q65 0 100.5 -43t24.5 -105q-11 -63 -62.5 -106t-117.5 -43t-104 43t-27 106zM1137 1722q10 61 66 104.5t122 43.5q63 0 98.5 -43t24.5 -105q-10 -63 -62.5 -106t-115.5 -43 q-66 0 -104.5 43t-28.5 106z" />
<glyph unicode="&#xd7;" horiz-adv-x="995" d="M160 295l266 223l-188 232l186 157l190 -231l275 233l127 -155l-277 -236l193 -229l-184 -158l-193 231l-268 -225z" />
<glyph unicode="&#xd8;" horiz-adv-x="1593" d="M94 66l197 167q-141 206 -92 472q35 197 160.5 363.5t307.5 264t377 97.5q129 0 239.5 -43.5t191.5 -122.5l188 166l80 -95l-191 -168q131 -204 86 -462q-34 -196 -159.5 -362t-308.5 -263.5t-379 -97.5q-255 0 -422 157q16 16 37 31l-232 -201zM545 705 q-24 -126 24 -224l621 535q-83 71 -207 71q-155 0 -282 -111t-156 -271zM651 387q84 -63 199 -63q156 0 286 111.5t158 269.5q20 115 -28 213z" />
<glyph unicode="&#xd9;" horiz-adv-x="1396" d="M229 514l158 897h344l-158 -897q-17 -90 38.5 -150.5t138.5 -60.5q82 0 157 60.5t92 150.5l158 897h344l-158 -897q-29 -158 -128 -281t-235.5 -187t-285.5 -64q-109 0 -203.5 38t-160.5 105.5t-94 168.5t-7 220zM682 1890h303l129 -356h-211z" />
<glyph unicode="&#xda;" horiz-adv-x="1396" d="M229 514l158 897h344l-158 -897q-17 -90 38.5 -150.5t138.5 -60.5q82 0 157 60.5t92 150.5l158 897h344l-158 -897q-29 -158 -128 -281t-235.5 -187t-285.5 -64q-109 0 -203.5 38t-160.5 105.5t-94 168.5t-7 220zM836 1534l251 356h304l-344 -356h-211z" />
<glyph unicode="&#xdb;" horiz-adv-x="1396" d="M229 514l158 897h344l-158 -897q-17 -90 38.5 -150.5t138.5 -60.5q82 0 157 60.5t92 150.5l158 897h344l-158 -897q-29 -158 -128 -281t-235.5 -187t-285.5 -64q-109 0 -203.5 38t-160.5 105.5t-94 168.5t-7 220zM584 1550l286 355h320l162 -355h-222l-129 183l-198 -183 h-219z" />
<glyph unicode="&#xdc;" horiz-adv-x="1396" d="M229 514l158 897h344l-158 -897q-17 -90 38.5 -150.5t138.5 -60.5q82 0 157 60.5t92 150.5l158 897h344l-158 -897q-29 -158 -128 -281t-235.5 -187t-285.5 -64q-109 0 -203.5 38t-160.5 105.5t-94 168.5t-7 220zM653 1722q12 62 66.5 105t120.5 43q65 0 100.5 -43 t24.5 -105q-10 -63 -62.5 -106t-118.5 -43t-104 43t-27 106zM1038 1722q10 61 66.5 104.5t122.5 43.5q63 0 98.5 -43t24.5 -105q-10 -63 -62.5 -106t-116.5 -43q-66 0 -104.5 43t-28.5 106z" />
<glyph unicode="&#xdd;" horiz-adv-x="1357" d="M203 1411h407l224 -512l409 512h406l-688 -782l-111 -629h-344l110 635zM807 1534l254 356h303l-346 -356h-211z" />
<glyph unicode="&#xde;" horiz-adv-x="1177" d="M158 0l248 1411h342l-41 -227h163q198 0 309.5 -128.5t75.5 -338.5t-194.5 -342.5t-355.5 -132.5h-164l-41 -242h-342zM592 524h133q73 0 125.5 50t69.5 137t-19 138.5t-110 51.5h-134z" />
<glyph unicode="&#xdf;" horiz-adv-x="1595" d="M201 705q21 102 43 149h1048q-25 104 -106.5 166.5t-198.5 62.5q-99 0 -190.5 -47t-157.5 -131q-30 23 -76.5 61t-56.5 46q-34 28 -88 72l-27 22q128 154 300.5 238t357.5 86q146 0 269 -57.5t203 -155t113.5 -231.5t7.5 -281q-35 -196 -161 -363t-308 -264.5t-376 -97.5 q-145 0 -268 56t-204 152t-115.5 231.5t-8.5 285.5zM551 549q29 -105 110.5 -164t192.5 -61q116 0 218.5 61t162.5 164h-684z" />
<glyph unicode="&#xe0;" d="M152 479q20 112 76.5 208t132.5 158.5t165.5 98t178.5 35.5q76 0 143 -33.5t98 -93.5l19 102h325l-168 -954h-325l20 109q-121 -127 -287 -127q-89 0 -166.5 34.5t-132 96.5t-77 157.5t-2.5 208.5zM483 477q-17 -81 32 -139.5t130 -58.5t150 58t86 140q17 81 -32.5 140 t-129.5 59q-81 0 -150 -58.5t-86 -140.5zM571 1481h303l127 -357h-210z" />
<glyph unicode="&#xe1;" d="M152 479q20 112 76.5 208t132.5 158.5t165.5 98t178.5 35.5q76 0 143 -33.5t98 -93.5l19 102h325l-168 -954h-325l20 109q-121 -127 -287 -127q-89 0 -166.5 34.5t-132 96.5t-77 157.5t-2.5 208.5zM483 477q-17 -81 32 -139.5t130 -58.5t150 58t86 140q17 81 -32.5 140 t-129.5 59q-81 0 -150 -58.5t-86 -140.5zM664 1124l254 357h303l-347 -357h-210z" />
<glyph unicode="&#xe2;" d="M152 479q20 112 76.5 208t132.5 158.5t165.5 98t178.5 35.5q76 0 143 -33.5t98 -93.5l19 102h325l-168 -954h-325l20 109q-121 -127 -287 -127q-89 0 -166.5 34.5t-132 96.5t-77 157.5t-2.5 208.5zM444 1141l287 354h320l161 -354h-221l-133 182l-194 -182h-220zM483 477 q-17 -81 32 -139.5t130 -58.5t150 58t86 140q17 81 -32.5 140t-129.5 59q-81 0 -150 -58.5t-86 -140.5z" />
<glyph unicode="&#xe3;" d="M152 479q20 112 76.5 208t132.5 158.5t165.5 98t178.5 35.5q76 0 143 -33.5t98 -93.5l19 102h325l-168 -954h-325l20 109q-121 -127 -287 -127q-89 0 -166.5 34.5t-132 96.5t-77 157.5t-2.5 208.5zM483 477q-17 -81 32 -139.5t130 -58.5t150 58t86 140q17 81 -32.5 140 t-129.5 59q-81 0 -150 -58.5t-86 -140.5zM530 1135q15 72 45.5 126.5t67 83.5t72.5 42.5t71 13.5q29 0 54 -13t40 -29t32.5 -29t33.5 -13t39 20.5t33 63.5h153q-17 -72 -47.5 -125.5t-66.5 -81.5t-70.5 -41.5t-68.5 -13.5t-65.5 21t-56.5 42t-44 21q-15 0 -37 -22t-31 -66 h-154z" />
<glyph unicode="&#xe4;" d="M152 479q20 112 76.5 208t132.5 158.5t165.5 98t178.5 35.5q76 0 143 -33.5t98 -93.5l19 102h325l-168 -954h-325l20 109q-121 -127 -287 -127q-89 0 -166.5 34.5t-132 96.5t-77 157.5t-2.5 208.5zM483 477q-17 -81 32 -139.5t130 -58.5t150 58t86 140q17 81 -32.5 140 t-129.5 59q-81 0 -150 -58.5t-86 -140.5zM508 1313q12 62 65 104.5t119 42.5q65 0 101.5 -42.5t25.5 -104.5q-11 -63 -61.5 -106.5t-116.5 -43.5t-104.5 43.5t-28.5 106.5zM893 1313q10 61 65 104t121 43q63 0 99.5 -42.5t25.5 -104.5q-10 -63 -61.5 -106.5t-114.5 -43.5 q-66 0 -105.5 43.5t-29.5 106.5z" />
<glyph unicode="&#xe5;" d="M152 479q20 112 76.5 208t132.5 158.5t165.5 98t178.5 35.5q76 0 143 -33.5t98 -93.5l19 102h325l-168 -954h-325l20 109q-121 -127 -287 -127q-89 0 -166.5 34.5t-132 96.5t-77 157.5t-2.5 208.5zM483 477q-17 -81 32 -139.5t130 -58.5t150 58t86 140q17 81 -32.5 140 t-129.5 59q-81 0 -150 -58.5t-86 -140.5zM608 1378q20 110 109 187t196 77q110 0 172.5 -77t42.5 -187q-20 -109 -108.5 -184.5t-198.5 -75.5q-108 0 -170.5 76t-42.5 184zM735 1378q-10 -59 21.5 -96t87.5 -37q58 0 104 37t56 96q10 60 -22 100t-89 40q-56 0 -102 -40 t-56 -100z" />
<glyph unicode="&#xe6;" horiz-adv-x="2015" d="M152 479q20 112 76.5 208t132.5 158.5t165.5 98t178.5 35.5q76 0 143 -33.5t98 -93.5l19 102h325l-16 -96q157 121 362 121q101 0 185.5 -34t141.5 -96t80 -154.5t3 -202.5l-25 -105h-684q-4 -65 53.5 -105t139.5 -40q112 0 199 80q18 -18 99 -84t95 -78 q-89 -93 -211 -135.5t-250 -42.5q-208 0 -321 122l-19 -104h-325l20 109q-121 -127 -287 -127q-89 0 -166.5 34.5t-132 96.5t-77 157.5t-2.5 208.5zM483 477q-17 -81 32 -139.5t130 -58.5t150 58t86 140q17 81 -32.5 140t-129.5 59q-81 0 -150 -58.5t-86 -140.5zM1372 569 h381q-4 43 -23.5 73.5t-48 44t-52 19t-46.5 5.5q-22 0 -47.5 -5.5t-58 -19t-61 -44t-44.5 -73.5z" />
<glyph unicode="&#xe7;" horiz-adv-x="1077" d="M150 479q27 147 121 262.5t225 176.5t274 61q258 0 379 -236l-315 -172q-13 40 -52.5 63t-91.5 23q-71 0 -134 -54t-75 -124q-12 -73 30.5 -125.5t115.5 -52.5q108 0 168 78l262 -162q-186 -222 -436 -233l55 -107q15 -45 2 -104q-17 -91 -90.5 -153t-159.5 -62 q-95 0 -150 67t-28 197l141 -8q-20 -75 23 -102q34 -21 72 3q48 29 42 96q-1 6 -2 13l-55 172q-172 38 -264 167t-57 316z" />
<glyph unicode="&#xe8;" horiz-adv-x="1126" d="M150 483q27 147 117 261.5t215 174.5t263 60q101 0 185.5 -34t141.5 -96t80 -154.5t3 -202.5l-25 -105h-684q-4 -65 53.5 -105t139.5 -40q112 0 199 80q18 -18 99 -84t95 -78q-89 -93 -211 -135.5t-250 -42.5q-102 0 -189 36.5t-145 100.5t-82.5 159t-4.5 205zM469 1481 h303l127 -357h-211zM481 569h381q-4 43 -23.5 73.5t-48 44t-52 19t-46.5 5.5q-22 0 -47.5 -5.5t-58 -19t-61 -44t-44.5 -73.5z" />
<glyph unicode="&#xe9;" horiz-adv-x="1126" d="M150 483q27 147 117 261.5t215 174.5t263 60q101 0 185.5 -34t141.5 -96t80 -154.5t3 -202.5l-25 -105h-684q-4 -65 53.5 -105t139.5 -40q112 0 199 80q18 -18 99 -84t95 -78q-89 -93 -211 -135.5t-250 -42.5q-102 0 -189 36.5t-145 100.5t-82.5 159t-4.5 205zM481 569 h381q-4 43 -23.5 73.5t-48 44t-52 19t-46.5 5.5q-22 0 -47.5 -5.5t-58 -19t-61 -44t-44.5 -73.5zM651 1124l254 357h303l-346 -357h-211z" />
<glyph unicode="&#xea;" horiz-adv-x="1126" d="M150 483q27 147 117 261.5t215 174.5t263 60q101 0 185.5 -34t141.5 -96t80 -154.5t3 -202.5l-25 -105h-684q-4 -65 53.5 -105t139.5 -40q112 0 199 80q18 -18 99 -84t95 -78q-89 -93 -211 -135.5t-250 -42.5q-102 0 -189 36.5t-145 100.5t-82.5 159t-4.5 205zM387 1141 l287 354h319l162 -354h-221l-133 182l-195 -182h-219zM481 569h381q-4 43 -23.5 73.5t-48 44t-52 19t-46.5 5.5q-22 0 -47.5 -5.5t-58 -19t-61 -44t-44.5 -73.5z" />
<glyph unicode="&#xeb;" horiz-adv-x="1126" d="M150 483q27 147 117 261.5t215 174.5t263 60q101 0 185.5 -34t141.5 -96t80 -154.5t3 -202.5l-25 -105h-684q-4 -65 53.5 -105t139.5 -40q112 0 199 80q18 -18 99 -84t95 -78q-89 -93 -211 -135.5t-250 -42.5q-102 0 -189 36.5t-145 100.5t-82.5 159t-4.5 205zM451 1313 q12 62 65 104.5t119 42.5q65 0 101.5 -42.5t25.5 -104.5q-11 -63 -61.5 -106.5t-116.5 -43.5t-104.5 43.5t-28.5 106.5zM481 569h381q-4 43 -23.5 73.5t-48 44t-52 19t-46.5 5.5q-22 0 -47.5 -5.5t-58 -19t-61 -44t-44.5 -73.5zM836 1313q10 61 65 104t121 43 q63 0 99.5 -42.5t25.5 -104.5q-10 -63 -61.5 -106.5t-114.5 -43.5q-66 0 -105.5 43.5t-29.5 106.5z" />
<glyph unicode="&#xec;" horiz-adv-x="567" d="M123 0l168 956h321l-168 -956h-321zM211 1481h303l127 -357h-211z" />
<glyph unicode="&#xed;" horiz-adv-x="567" d="M123 0l168 956h321l-168 -956h-321zM322 1124l253 357h304l-347 -357h-210z" />
<glyph unicode="&#xee;" horiz-adv-x="567" d="M98 1141l287 354h320l161 -354h-221l-133 182l-195 -182h-219zM123 0l168 956h321l-168 -956h-321z" />
<glyph unicode="&#xef;" horiz-adv-x="567" d="M123 0l168 956h321l-168 -956h-321zM166 1313q12 62 65 104.5t119 42.5q65 0 101.5 -42.5t25.5 -104.5q-11 -63 -62.5 -106.5t-117.5 -43.5t-104 43.5t-27 106.5zM551 1313q10 61 65 104t121 43q63 0 99.5 -42.5t25.5 -104.5q-10 -63 -62.5 -106.5t-115.5 -43.5 q-66 0 -104.5 43.5t-28.5 106.5z" />
<glyph unicode="&#xf0;" horiz-adv-x="1130" d="M150 477q29 174 151 299t289 162q50 11 129 14l-80 146l-184 -68l-37 100l174 64l-113 217h297l68 -127l170 70l53 -94l-180 -70l215 -416q71 -135 39 -297q-27 -147 -114.5 -261.5t-210 -174t-257.5 -59.5q-101 0 -184.5 35t-139.5 98.5t-79.5 157t-5.5 204.5zM473 477 q-17 -78 26.5 -127t114.5 -49q73 0 130.5 48t74.5 128q13 76 -28 123t-115 47q-72 0 -131 -47t-72 -123z" />
<glyph unicode="&#xf1;" horiz-adv-x="1208" d="M123 0l168 954h325l-26 -149q26 56 83.5 98t114 59t101.5 17q189 0 262.5 -122t34.5 -349l-88 -508h-326l86 498q16 85 -25 125.5t-102 40.5q-67 0 -122.5 -39t-71.5 -123l-88 -502h-326zM508 1135q34 139 106 202.5t150 63.5q30 0 55.5 -13t40 -29t32.5 -29t34 -13 t38 20.5t31 63.5h154q-15 -72 -46 -126t-68 -82t-72 -41t-68 -13q-35 0 -65.5 21t-55 42t-43.5 21q-15 0 -37.5 -22.5t-31.5 -65.5h-154z" />
<glyph unicode="&#xf2;" horiz-adv-x="1153" d="M150 479q27 147 117.5 262.5t215.5 176.5t260 61q102 0 188.5 -36t146 -100t84.5 -158.5t5 -205.5q-27 -146 -118 -261t-217 -175.5t-263 -60.5q-100 0 -186 36t-145 99.5t-83.5 157.5t-4.5 204zM434 1481h303l127 -357h-211zM457 479q-17 -81 32.5 -139.5t131.5 -58.5 t149 57.5t84 140.5q17 81 -32.5 140t-129.5 59q-81 0 -149.5 -58.5t-85.5 -140.5z" />
<glyph unicode="&#xf3;" horiz-adv-x="1153" d="M150 479q27 147 117.5 262.5t215.5 176.5t260 61q102 0 188.5 -36t146 -100t84.5 -158.5t5 -205.5q-27 -146 -118 -261t-217 -175.5t-263 -60.5q-100 0 -186 36t-145 99.5t-83.5 157.5t-4.5 204zM457 479q-17 -81 32.5 -139.5t131.5 -58.5t149 57.5t84 140.5 q17 81 -32.5 140t-129.5 59q-81 0 -149.5 -58.5t-85.5 -140.5zM643 1124l254 357h303l-346 -357h-211z" />
<glyph unicode="&#xf4;" horiz-adv-x="1153" d="M150 479q27 147 117.5 262.5t215.5 176.5t260 61q102 0 188.5 -36t146 -100t84.5 -158.5t5 -205.5q-27 -146 -118 -261t-217 -175.5t-263 -60.5q-100 0 -186 36t-145 99.5t-83.5 157.5t-4.5 204zM393 1141l287 354h319l162 -354h-221l-133 182l-195 -182h-219zM457 479 q-17 -81 32.5 -139.5t131.5 -58.5t149 57.5t84 140.5q17 81 -32.5 140t-129.5 59q-81 0 -149.5 -58.5t-85.5 -140.5z" />
<glyph unicode="&#xf5;" horiz-adv-x="1153" d="M150 479q27 147 117.5 262.5t215.5 176.5t260 61q102 0 188.5 -36t146 -100t84.5 -158.5t5 -205.5q-27 -146 -118 -261t-217 -175.5t-263 -60.5q-100 0 -186 36t-145 99.5t-83.5 157.5t-4.5 204zM457 479q-17 -81 32.5 -139.5t131.5 -58.5t149 57.5t84 140.5 q17 81 -32.5 140t-129.5 59q-81 0 -149.5 -58.5t-85.5 -140.5zM479 1135q15 72 45.5 126.5t67 83.5t72.5 42.5t71 13.5q29 0 54 -13t40 -29t32.5 -29t33.5 -13t39 20.5t33 63.5h153q-14 -58 -37 -104t-49 -75t-56.5 -48.5t-57.5 -27t-54 -7.5q-34 0 -65.5 21t-56.5 42 t-44 21q-15 0 -36.5 -22t-30.5 -66h-154z" />
<glyph unicode="&#xf6;" horiz-adv-x="1153" d="M150 479q27 147 117.5 262.5t215.5 176.5t260 61q102 0 188.5 -36t146 -100t84.5 -158.5t5 -205.5q-27 -146 -118 -261t-217 -175.5t-263 -60.5q-100 0 -186 36t-145 99.5t-83.5 157.5t-4.5 204zM457 479q-17 -81 32.5 -139.5t131.5 -58.5t149 57.5t84 140.5 q17 81 -32.5 140t-129.5 59q-81 0 -149.5 -58.5t-85.5 -140.5zM459 1313q12 62 65 104.5t119 42.5q65 0 101.5 -42.5t25.5 -104.5q-11 -63 -61.5 -106.5t-116.5 -43.5t-104.5 43.5t-28.5 106.5zM844 1313q10 61 65 104t121 43q63 0 99.5 -42.5t25.5 -104.5 q-10 -63 -61.5 -106.5t-114.5 -43.5q-66 0 -105.5 43.5t-29.5 106.5z" />
<glyph unicode="&#xf7;" horiz-adv-x="1271" d="M180 446l37 209h1067l-37 -209h-1067zM487 150q12 71 69 117t130 46t114 -46t29 -117q-12 -72 -70 -120t-130 -48t-113 48t-29 120zM627 942q12 71 68.5 117.5t129.5 46.5t114.5 -46.5t29.5 -117.5q-13 -74 -70.5 -120t-130.5 -46t-113.5 46t-27.5 120z" />
<glyph unicode="&#xf8;" horiz-adv-x="1153" d="M80 45l129 111q-92 129 -57 323q27 147 117.5 262.5t215.5 176.5t260 61q170 0 297 -100l123 106l70 -82l-121 -104q86 -132 53 -320q-27 -146 -117.5 -261t-216.5 -175.5t-262 -60.5q-178 0 -288 94l-133 -115zM459 479q-9 -59 8 -98l315 272q-45 25 -88 25 q-81 0 -149.5 -58.5t-85.5 -140.5zM541 299q35 -18 82 -18q82 0 149 57.5t84 140.5q8 43 -4 90z" />
<glyph unicode="&#xf9;" horiz-adv-x="1208" d="M190 453l89 501h327l-88 -491q-16 -85 24 -125.5t101 -40.5q30 0 59 7.5t59 24t50.5 48.5t26.5 76l90 501h325l-168 -954h-325l24 150q-26 -56 -83 -96.5t-112 -56t-102 -15.5q-189 0 -264 122.5t-33 348.5zM518 1481h303l127 -357h-211z" />
<glyph unicode="&#xfa;" horiz-adv-x="1208" d="M190 453l89 501h327l-88 -491q-16 -85 24 -125.5t101 -40.5q30 0 59 7.5t59 24t50.5 48.5t26.5 76l90 501h325l-168 -954h-325l24 150q-26 -56 -83 -96.5t-112 -56t-102 -15.5q-189 0 -264 122.5t-33 348.5zM672 1124l254 357h303l-346 -357h-211z" />
<glyph unicode="&#xfb;" horiz-adv-x="1208" d="M190 453l89 501h327l-88 -491q-16 -85 24 -125.5t101 -40.5q30 0 59 7.5t59 24t50.5 48.5t26.5 76l90 501h325l-168 -954h-325l24 150q-26 -56 -83 -96.5t-112 -56t-102 -15.5q-189 0 -264 122.5t-33 348.5zM412 1141l286 354h320l162 -354h-222l-133 182l-194 -182h-219 z" />
<glyph unicode="&#xfc;" horiz-adv-x="1208" d="M190 453l89 501h327l-88 -491q-16 -85 24 -125.5t101 -40.5q30 0 59 7.5t59 24t50.5 48.5t26.5 76l90 501h325l-168 -954h-325l24 150q-26 -56 -83 -96.5t-112 -56t-102 -15.5q-189 0 -264 122.5t-33 348.5zM502 1313q12 62 65 104.5t119 42.5q65 0 101.5 -42.5 t25.5 -104.5q-11 -63 -62.5 -106.5t-117.5 -43.5t-104 43.5t-27 106.5zM887 1313q10 61 65 104t121 43q63 0 99.5 -42.5t25.5 -104.5q-10 -63 -62.5 -106.5t-115.5 -43.5q-66 0 -104.5 43.5t-28.5 106.5z" />
<glyph unicode="&#xfd;" horiz-adv-x="1060" d="M43 -471l344 598l-227 827h356l105 -462l260 462h346l-842 -1425h-342zM571 1124l254 357h303l-346 -357h-211z" />
<glyph unicode="&#xfe;" horiz-adv-x="1247" d="M39 -471l342 1927h326l-107 -590q123 113 285 113q90 0 167 -35.5t130.5 -98.5t75.5 -158.5t2 -207.5q-26 -150 -114 -265.5t-202.5 -173.5t-234.5 -58q-40 0 -78.5 8.5t-75 25.5t-63.5 48.5t-39 72.5l-107 -608h-307zM530 477q-17 -81 32.5 -139.5t131.5 -58.5 t149.5 57.5t84.5 140.5q17 81 -32.5 140t-129.5 59q-81 0 -150 -58.5t-86 -140.5z" />
<glyph unicode="&#xff;" horiz-adv-x="1126" d="M147 467l25 104h684q4 65 -53 105.5t-139 40.5q-112 0 -199 -80q-18 18 -100.5 84.5t-94.5 77.5q89 93 211 135.5t250 42.5q101 0 187.5 -37t145.5 -101.5t84 -159.5t5 -204q-27 -147 -117 -261.5t-215.5 -174t-263.5 -59.5q-101 0 -185.5 34t-141.5 96t-80 154.5 t-3 202.5zM440 389q4 -43 23.5 -73.5t48 -44t52 -18.5t46.5 -5t48 5t58 18t61.5 43.5t43.5 74.5h-381z" />
<glyph unicode="&#x152;" horiz-adv-x="2207" d="M201 705q35 196 160.5 363t308 264.5t377.5 97.5q206 0 360 -109l16 90h916l-53 -299h-574l-49 -270h504l-51 -293h-504l-43 -250h592l-52 -299h-933l14 88q-195 -106 -397 -106q-146 0 -269 57.5t-202.5 154.5t-113 231t-7.5 280zM547 705q-28 -159 59.5 -269 t245.5 -110q156 0 286 110.5t158 268.5t-62.5 269t-248.5 111q-155 0 -282.5 -111t-155.5 -269z" />
<glyph unicode="&#x153;" horiz-adv-x="1835" d="M150 479q27 147 117.5 262.5t215.5 176.5t260 61q100 0 187.5 -35t142.5 -98q179 133 381 133q101 0 185.5 -34t141.5 -96t80 -154.5t3 -202.5l-25 -105h-684q-4 -65 53.5 -105t139.5 -40q111 0 198 80q18 -18 99 -83.5t96 -78.5q-89 -93 -211 -135.5t-250 -42.5 q-104 0 -189.5 34.5t-140.5 100.5q-176 -135 -381 -135q-100 0 -186 36t-145 99.5t-83.5 157.5t-4.5 204zM457 479q-17 -81 32.5 -139.5t131.5 -58.5t149 57.5t84 140.5q17 81 -32.5 140t-129.5 59q-81 0 -149.5 -58.5t-85.5 -140.5zM1190 569h381q-4 43 -23.5 73.5t-48 44 t-52 19t-46.5 5.5q-22 0 -47.5 -5.5t-58 -19t-61 -44t-44.5 -73.5z" />
<glyph unicode="&#x178;" horiz-adv-x="1357" d="M203 1411h407l224 -512l409 512h406l-688 -782l-111 -629h-344l110 635zM635 1722q12 62 65 105t119 43q65 0 101.5 -43t25.5 -105q-11 -63 -62.5 -106t-117.5 -43t-104 43t-27 106zM1020 1722q10 61 65 104.5t121 43.5q63 0 99.5 -43t25.5 -105q-10 -63 -62.5 -106 t-115.5 -43q-66 0 -104.5 43t-28.5 106z" />
<glyph unicode="&#x2c6;" horiz-adv-x="1198" d="M416 1141l286 354h320l162 -354h-221l-134 182l-194 -182h-219z" />
<glyph unicode="&#x2dc;" horiz-adv-x="919" d="M362 1135q15 72 45.5 126.5t67 83.5t72.5 42.5t71 13.5q29 0 54 -13t40 -29t32.5 -29t33.5 -13t39 20.5t33 63.5h154q-14 -58 -37 -104t-49 -75t-56.5 -48.5t-57.5 -27t-54 -7.5q-34 0 -65.5 21t-56.5 42t-44 21q-15 0 -37 -22t-31 -66h-154z" />
<glyph unicode="&#x2000;" horiz-adv-x="1026" />
<glyph unicode="&#x2001;" horiz-adv-x="2052" />
<glyph unicode="&#x2002;" horiz-adv-x="1026" />
<glyph unicode="&#x2003;" horiz-adv-x="2052" />
<glyph unicode="&#x2004;" horiz-adv-x="684" />
<glyph unicode="&#x2005;" horiz-adv-x="513" />
<glyph unicode="&#x2006;" horiz-adv-x="342" />
<glyph unicode="&#x2007;" horiz-adv-x="342" />
<glyph unicode="&#x2008;" horiz-adv-x="256" />
<glyph unicode="&#x2009;" horiz-adv-x="410" />
<glyph unicode="&#x200a;" horiz-adv-x="114" />
<glyph unicode="&#x2010;" horiz-adv-x="964" d="M180 358l49 277h727l-49 -277h-727z" />
<glyph unicode="&#x2011;" horiz-adv-x="964" d="M180 358l49 277h727l-49 -277h-727z" />
<glyph unicode="&#x2012;" horiz-adv-x="964" d="M180 358l49 277h727l-49 -277h-727z" />
<glyph unicode="&#x2013;" horiz-adv-x="1339" d="M178 352l51 277h1102l-51 -277h-1102z" />
<glyph unicode="&#x2014;" horiz-adv-x="1781" d="M180 350l49 277h1545l-50 -277h-1544z" />
<glyph unicode="&#x2018;" horiz-adv-x="544" d="M270 946q17 97 57.5 187t93 158t100 116t97.5 86l119 -82q-87 -98 -137 -206t-76 -259h-254z" />
<glyph unicode="&#x2019;" horiz-adv-x="526" d="M238 948q88 97 137.5 205t75.5 260h254q-17 -97 -57.5 -187t-93.5 -158t-100.5 -116t-97.5 -86z" />
<glyph unicode="&#x201a;" horiz-adv-x="532" d="M-16 -201q85 97 134 205.5t75 259.5h253q-17 -97 -57.5 -187t-93 -158t-100 -116t-97.5 -86z" />
<glyph unicode="&#x201c;" horiz-adv-x="903" d="M270 946q17 97 57.5 187t93 158t100 116t97.5 86l119 -82q-87 -98 -137 -206t-76 -259h-254zM629 946q17 97 57.5 187t93 158t100 116t97.5 86l119 -82q-87 -98 -137 -206t-76 -259h-254z" />
<glyph unicode="&#x201d;" horiz-adv-x="884" d="M238 948q88 97 137.5 205t75.5 260h254q-17 -97 -57.5 -187t-93.5 -158t-100.5 -116t-97.5 -86zM596 948q88 97 137.5 205t75.5 260h254q-17 -97 -57.5 -187t-93 -158t-100 -116t-97.5 -86z" />
<glyph unicode="&#x201e;" horiz-adv-x="890" d="M-16 -201q85 97 134 205.5t75 259.5h253q-17 -97 -57.5 -187t-93 -158t-100 -116t-97.5 -86zM338 -201q88 97 137.5 205t75.5 260h254q-17 -97 -57.5 -187t-93 -158t-100 -116t-97.5 -86z" />
<glyph unicode="&#x2022;" horiz-adv-x="1003" d="M250 487q16 91 75.5 166t144.5 116.5t175 41.5q137 0 219 -93t58 -231q-16 -92 -76 -167t-144.5 -116.5t-175.5 -41.5q-137 0 -218.5 93t-57.5 232z" />
<glyph unicode="&#x2026;" horiz-adv-x="1898" d="M127 172q12 78 79 132t146 54q81 0 129 -53t35 -133q-17 -82 -82 -136t-145 -54q-79 0 -129 55t-33 135zM782 172q12 78 79 132t147 54q81 0 128.5 -52.5t34.5 -133.5q-17 -82 -82 -136t-145 -54q-79 0 -129 55t-33 135zM1438 172q12 78 79 132t146 54q80 0 127.5 -53 t34.5 -133q-17 -81 -82.5 -135.5t-143.5 -54.5q-79 0 -128.5 55t-32.5 135z" />
<glyph unicode="&#x202f;" horiz-adv-x="410" />
<glyph unicode="&#x2039;" horiz-adv-x="681" d="M156 477l358 424h244l-359 -424l209 -424h-243z" />
<glyph unicode="&#x203a;" horiz-adv-x="681" d="M90 53l356 424l-204 424h243l205 -424l-356 -424h-244z" />
<glyph unicode="&#x205f;" horiz-adv-x="513" />
<glyph unicode="&#x20ac;" horiz-adv-x="1708" d="M176 526l25 136h995l-25 -136h-432q26 -105 106 -164t197 -59q110 0 209.5 53.5t163.5 143.5l256 -183q-117 -156 -296.5 -245.5t-387.5 -89.5q-257 0 -424 152t-184 392h-203zM219 764l25 135h207q99 234 318.5 382.5t471.5 148.5q206 0 352 -86.5t209 -237.5l-319 -182 q-32 86 -110.5 134t-188.5 48q-112 0 -209 -54.5t-160 -152.5h424l-25 -135h-995z" />
<glyph unicode="&#x2122;" horiz-adv-x="1724" d="M340 1241l31 170h794l135 -440l291 440h162l-43 -749h-190l24 415l-213 -334h-135l-100 336l-121 -417h-189l175 579h-195l-102 -579h-189l103 579h-238z" />
<glyph unicode="&#x25fc;" horiz-adv-x="952" d="M0 0v952h952v-952h-952z" />
</font>
</defs>
</svg>
